<?xml version="1.0" encoding="utf-8"?>
<!-- Generator: Adobe Illustrator 19.2.1, SVG Export Plug-In . SVG Version: 6.00 Build 0)  -->
<svg version="1.1" xmlns="http://www.w3.org/2000/svg" xmlns:xlink="http://www.w3.org/1999/xlink" x="0px" y="0px"
	 viewBox="0 0 269.3 56.7" style="enable-background:new 0 0 269.3 56.7;" xml:space="preserve">
<style type="text/css">
	.st0{display:none;}
	.st1{display:inline;fill:#C9C65C;}
	.st2{display:inline;}
	.st3{fill:#FFFFFF;}
</style>
<g id="Layer_1" class="st0">
	<rect x="0" y="0" class="st1" width="269.3" height="56.7"/>
</g>
<g id="Layer_2" class="st0">
	<g class="st2">
		<path class="st3" d="M107.6,34.5c-0.9-1.2-1.8-2.3-2.6-3.4c-0.8-1.1-1.6-2.2-2.4-3.2c-0.8-1.1-1.6-2.2-2.5-3.2
			c-0.8-1.1-1.7-2.2-2.6-3.4c-0.3,0.3-0.6,0.6-0.9,0.9c-0.3,0.3-0.6,0.5-0.9,0.8v11.6h-5.5V4.9h5.5v10.6c0,0.2,0,0.4,0,0.7
			c0,0.2-0.1,0.5-0.1,0.7c0.1-0.2,0.3-0.4,0.4-0.5c0.1-0.1,0.3-0.3,0.4-0.5c1.8-1.8,3.6-3.6,5.3-5.5c1.7-1.9,3.5-3.7,5.3-5.5h6.3
			c-2,2.1-4,4.3-6,6.5c-2,2.2-4,4.3-6,6.5c1.1,1.5,2.2,2.9,3.2,4.3c1,1.4,2,2.7,3,4.1c1,1.3,2,2.7,3,4.1c1,1.4,2.1,2.8,3.2,4.2
			H107.6z"/>
		<path class="st3" d="M113.7,26c0-1.2,0.2-2.4,0.7-3.6c0.5-1.1,1.1-2.1,2-2.9c0.8-0.8,1.8-1.5,2.9-2c1.1-0.5,2.3-0.8,3.5-0.8
			c0.8,0,1.5,0.1,2.2,0.3c0.6,0.2,1.2,0.4,1.7,0.7c0.5,0.3,0.8,0.5,1.1,0.8c0.3,0.3,0.4,0.5,0.5,0.7l0.2-2.1h3.8v17.2h-3.9v-1.1
			c0-0.1,0-0.3,0-0.4c0-0.1,0-0.2,0-0.3c-0.1,0.1-0.3,0.3-0.6,0.6c-0.3,0.3-0.6,0.5-1.1,0.8c-0.5,0.2-1,0.5-1.6,0.6
			c-0.6,0.2-1.4,0.3-2.2,0.3c-1.3,0-2.5-0.2-3.7-0.7c-1.1-0.5-2.1-1.1-2.9-1.9s-1.4-1.8-1.9-2.8C113.9,28.4,113.7,27.2,113.7,26z
			 M117.6,25.8c0,0.8,0.1,1.5,0.4,2.1c0.3,0.6,0.6,1.2,1.1,1.7c0.5,0.5,1,0.8,1.7,1.1c0.6,0.3,1.4,0.4,2.2,0.4
			c0.8,0,1.5-0.1,2.2-0.4c0.6-0.3,1.2-0.6,1.7-1.1c0.5-0.5,0.8-1.1,1.1-1.7c0.3-0.6,0.4-1.3,0.4-2.1c0-0.7-0.1-1.4-0.4-2
			c-0.3-0.6-0.6-1.2-1.1-1.6c-0.5-0.5-1-0.8-1.7-1.1c-0.6-0.3-1.4-0.4-2.2-0.4c-0.8,0-1.5,0.1-2.2,0.4c-0.6,0.3-1.2,0.6-1.7,1.1
			c-0.5,0.5-0.8,1-1.1,1.7C117.7,24.4,117.6,25.1,117.6,25.8z"/>
		<path class="st3" d="M135.6,21v-3.8h3v-3.7c0-3.6,0.8-6.3,2.5-8c1.7-1.7,4.1-2.6,7.3-2.7v3.7c-2.1,0.1-3.6,0.8-4.5,2
			c-0.9,1.2-1.4,2.9-1.4,5.2v3.5h5.4V21h-5.4v13.5h-3.9V21H135.6z"/>
		<path class="st3" d="M165.2,32.5c-0.8,0.8-1.9,1.4-3,1.8c-1.2,0.4-2.4,0.6-3.7,0.6c-1.3,0-2.5-0.2-3.6-0.7
			c-1.1-0.5-2.1-1.1-2.9-1.9s-1.5-1.8-2-2.9c-0.5-1.1-0.7-2.3-0.7-3.5s0.2-2.4,0.7-3.5c0.5-1.1,1.1-2.1,2-2.9
			c0.8-0.8,1.8-1.5,2.9-1.9c1.1-0.5,2.3-0.7,3.5-0.7c1.9,0,3.7,0.6,5.1,1.8c1.5,1.2,2.5,2.7,3.1,4.6c-0.8,0.3-1.8,0.7-2.8,1.1
			s-2.2,0.9-3.3,1.3c-1.2,0.5-2.3,0.9-3.5,1.4c-1.2,0.5-2.2,0.9-3.2,1.3c0.5,0.8,1.1,1.5,1.9,2c0.8,0.5,1.7,0.8,2.8,0.8
			c0.7,0,1.4-0.1,2.1-0.4c0.7-0.3,1.3-0.6,1.8-1L165.2,32.5z M161.8,22.4c-0.3-0.6-0.8-1-1.5-1.3c-0.6-0.3-1.3-0.4-1.9-0.4
			c-0.7,0-1.4,0.1-2.1,0.4c-0.6,0.3-1.2,0.7-1.7,1.1c-0.5,0.5-0.8,1-1.1,1.6c-0.3,0.6-0.4,1.2-0.4,1.9v0.2c0.7-0.3,1.4-0.6,2.2-0.9
			c0.8-0.3,1.5-0.6,2.3-1c0.8-0.3,1.5-0.6,2.2-0.9C160.6,22.8,161.2,22.6,161.8,22.4z"/>
		<path class="st3" d="M169.8,42.8c-0.5-0.5-0.9-1-1.4-1.5c-0.4-0.5-0.9-0.9-1.3-1.5c0.8-0.6,1.4-1.4,1.8-2.3c0.4-0.9,0.6-2,0.6-3.3
			V17.2h3.9v17.2c0,1.9-0.3,3.5-1,4.9C171.9,40.7,171,41.9,169.8,42.8z M169.3,10.5c0-0.7,0.3-1.3,0.8-1.7c0.5-0.5,1.1-0.7,1.7-0.7
			c0.6,0,1.1,0.2,1.6,0.7c0.5,0.5,0.7,1,0.7,1.7c0,0.7-0.2,1.3-0.7,1.8s-1,0.7-1.6,0.7c-0.6,0-1.2-0.2-1.7-0.7
			C169.6,11.9,169.3,11.3,169.3,10.5z"/>
		<path class="st3" d="M177.2,26c0-1.2,0.2-2.4,0.7-3.6c0.5-1.1,1.1-2.1,2-2.9c0.8-0.8,1.8-1.5,2.9-2c1.1-0.5,2.3-0.8,3.5-0.8
			c0.8,0,1.5,0.1,2.2,0.3c0.6,0.2,1.2,0.4,1.7,0.7c0.5,0.3,0.8,0.5,1.1,0.8c0.3,0.3,0.4,0.5,0.5,0.7l0.2-2.1h3.8v17.2h-3.9v-1.1
			c0-0.1,0-0.3,0-0.4c0-0.1,0-0.2,0-0.3c-0.1,0.1-0.3,0.3-0.6,0.6c-0.3,0.3-0.6,0.5-1.1,0.8c-0.5,0.2-1,0.5-1.6,0.6
			c-0.6,0.2-1.4,0.3-2.2,0.3c-1.3,0-2.5-0.2-3.7-0.7c-1.1-0.5-2.1-1.1-2.9-1.9c-0.8-0.8-1.4-1.8-1.9-2.8
			C177.4,28.4,177.2,27.2,177.2,26z M181.2,25.8c0,0.8,0.1,1.5,0.4,2.1c0.3,0.6,0.6,1.2,1.1,1.7c0.5,0.5,1,0.8,1.7,1.1
			c0.6,0.3,1.4,0.4,2.2,0.4c0.8,0,1.5-0.1,2.2-0.4c0.6-0.3,1.2-0.6,1.7-1.1c0.5-0.5,0.8-1.1,1.1-1.7c0.3-0.6,0.4-1.3,0.4-2.1
			c0-0.7-0.1-1.4-0.4-2c-0.3-0.6-0.6-1.2-1.1-1.6c-0.5-0.5-1-0.8-1.7-1.1c-0.7-0.3-1.4-0.4-2.2-0.4c-0.8,0-1.5,0.1-2.2,0.4
			c-0.7,0.3-1.2,0.6-1.7,1.1c-0.5,0.5-0.8,1-1.1,1.7C181.3,24.4,181.2,25.1,181.2,25.8z"/>
		<path class="st3" d="M210.2,30.4h8.8v4.1h-18.7c1.7-1.7,3.3-3.3,4.9-4.9c1.6-1.6,3-3.1,4.2-4.6c1.2-1.5,2.2-2.9,2.9-4.3
			c0.7-1.4,1.1-2.8,1.1-4.1c0-0.9-0.2-1.6-0.5-2.3c-0.3-0.6-0.7-1.2-1.2-1.6c-0.5-0.4-1-0.7-1.5-1c-0.5-0.2-1-0.3-1.5-0.3
			c-0.9,0-1.7,0.2-2.3,0.5c-0.6,0.3-1.1,0.7-1.5,1.2c-0.4,0.5-0.6,0.9-0.8,1.5c-0.1,0.5-0.2,0.9-0.2,1.3c0,0.9,0.1,1.7,0.4,2.4
			c0.3,0.7,0.7,1.3,1.2,1.8l-2.5,2.6c-0.5-0.3-1-0.7-1.4-1.2c-0.4-0.6-0.8-1.2-1-1.8c-0.3-0.6-0.5-1.3-0.6-1.9
			c-0.1-0.6-0.2-1.2-0.2-1.7c0-1.1,0.2-2.1,0.6-3.2c0.4-1,1-1.9,1.7-2.7c0.8-0.8,1.7-1.4,2.8-1.9c1.1-0.5,2.4-0.7,3.8-0.7
			c1.3,0,2.5,0.2,3.6,0.7c1.1,0.5,2,1.1,2.8,1.9c0.8,0.8,1.4,1.7,1.8,2.8c0.4,1.1,0.6,2.2,0.6,3.3c0,1.3-0.2,2.6-0.6,3.8
			c-0.4,1.2-0.9,2.4-1.6,3.6c-0.7,1.2-1.4,2.3-2.3,3.5C212.1,28.1,211.2,29.3,210.2,30.4z"/>
		<path class="st3" d="M240.4,17.3c0,1.5-0.2,2.8-0.7,4.1c-0.5,1.3-1.1,2.5-1.8,3.6c-0.7,1.1-1.6,2.2-2.5,3.1
			c-0.9,1-1.9,1.9-2.9,2.7s-2,1.5-2.9,2.2c-0.9,0.7-1.8,1.3-2.5,1.8c-0.5-0.5-0.9-1.1-1.3-1.6c-0.4-0.5-0.8-1.1-1.3-1.6
			c0.6-0.4,1.4-0.9,2.2-1.5c0.8-0.6,1.6-1.1,2.5-1.7c0.8-0.6,1.5-1.1,2.2-1.6c0.6-0.5,1.1-0.9,1.4-1.2c-0.4,0.4-0.9,0.6-1.5,0.6
			c-1.2,0-2.4-0.2-3.5-0.7c-1.1-0.5-2.1-1.1-2.9-1.9c-0.8-0.8-1.5-1.8-2-2.8c-0.5-1.1-0.7-2.3-0.7-3.5c0-1.2,0.2-2.4,0.7-3.5
			c0.5-1.1,1.1-2.1,2-2.9c0.8-0.8,1.8-1.5,2.9-2c1.1-0.5,2.3-0.7,3.5-0.7c1,0,2,0.2,3.1,0.5c1.1,0.4,2,0.9,2.9,1.6
			c0.9,0.7,1.6,1.7,2.2,2.8C240.1,14.3,240.4,15.7,240.4,17.3z M236.1,17.3c0-0.7-0.1-1.3-0.4-1.9c-0.2-0.6-0.6-1.1-1-1.6
			c-0.4-0.5-0.9-0.8-1.5-1.1c-0.6-0.3-1.2-0.4-1.9-0.4c-0.7,0-1.3,0.1-1.9,0.4c-0.6,0.3-1.1,0.6-1.6,1.1c-0.5,0.5-0.8,1-1.1,1.6
			c-0.3,0.6-0.4,1.3-0.4,1.9c0,0.7,0.1,1.4,0.4,1.9c0.3,0.6,0.6,1.1,1.1,1.6s1,0.8,1.6,1.1c0.6,0.3,1.2,0.4,1.9,0.4
			c0.7,0,1.3-0.1,1.9-0.4c0.6-0.3,1.1-0.6,1.5-1.1s0.8-1,1-1.6C236,18.6,236.1,18,236.1,17.3z"/>
	</g>
	<g class="st2">
		<path class="st3" d="M94.5,53.5c-0.7-0.9-1.4-1.8-2.1-2.7c-0.7-0.9-1.4-1.8-2.1-2.7L89,49.3c0,0.7,0,1.4,0,2.1c0,0.7,0,1.4,0,2.1
			h-0.6v-9.7H89v4.4c0,0.1,0,0.1,0,0.2c0,0.1,0,0.1,0,0.2l0.2-0.3c0.8-0.7,1.6-1.5,2.3-2.3c0.8-0.8,1.5-1.5,2.3-2.3h0.8l-4,3.9
			c0.8,1,1.5,1.9,2.3,2.9c0.7,0.9,1.5,1.9,2.2,2.9H94.5z"/>
		<path class="st3" d="M95.3,50.8c0-0.4,0.1-0.7,0.2-1.1c0.1-0.3,0.3-0.6,0.6-0.9c0.3-0.3,0.5-0.5,0.9-0.6c0.3-0.1,0.7-0.2,1.1-0.2
			s0.7,0.1,1.1,0.2c0.3,0.1,0.6,0.3,0.9,0.6c0.3,0.3,0.5,0.5,0.6,0.9c0.1,0.3,0.2,0.7,0.2,1.1s-0.1,0.7-0.2,1.1
			c-0.1,0.3-0.3,0.6-0.6,0.9c-0.3,0.2-0.5,0.4-0.9,0.6c-0.3,0.1-0.7,0.2-1.1,0.2c-0.4,0-0.7-0.1-1.1-0.2s-0.6-0.3-0.9-0.6
			c-0.2-0.2-0.4-0.5-0.6-0.9C95.4,51.6,95.3,51.2,95.3,50.8z M95.8,50.8c0,0.3,0.1,0.6,0.2,0.9c0.1,0.3,0.3,0.5,0.5,0.7
			c0.2,0.2,0.4,0.4,0.7,0.5c0.3,0.1,0.6,0.2,0.9,0.2c0.3,0,0.6-0.1,0.9-0.2c0.3-0.1,0.5-0.3,0.7-0.5c0.2-0.2,0.4-0.4,0.5-0.7
			c0.1-0.3,0.2-0.6,0.2-0.9s-0.1-0.6-0.2-0.9c-0.1-0.3-0.3-0.5-0.5-0.7c-0.2-0.2-0.5-0.4-0.7-0.5c-0.3-0.1-0.6-0.2-0.9-0.2
			c-0.3,0-0.6,0.1-0.9,0.2c-0.3,0.1-0.5,0.3-0.7,0.5s-0.4,0.5-0.5,0.7C95.9,50.2,95.8,50.5,95.8,50.8z"/>
		<path class="st3" d="M102.9,53.5h-0.5V43.1h0.5V53.5z"/>
		<path class="st3" d="M109.2,52.8c-0.2,0.2-0.5,0.4-0.9,0.5c-0.3,0.1-0.7,0.2-1.1,0.2c-0.4,0-0.7-0.1-1.1-0.2
			c-0.3-0.1-0.6-0.3-0.9-0.6c-0.3-0.2-0.4-0.5-0.6-0.9s-0.2-0.7-0.2-1.1s0.1-0.7,0.2-1.1c0.1-0.3,0.3-0.6,0.6-0.9
			c0.2-0.3,0.5-0.5,0.9-0.6c0.3-0.1,0.7-0.2,1.1-0.2c0.6,0,1.1,0.2,1.5,0.5s0.7,0.8,0.9,1.3c-0.3,0.1-0.7,0.3-1.1,0.4
			c-0.4,0.2-0.8,0.3-1.2,0.5c-0.4,0.2-0.8,0.3-1.2,0.5c-0.4,0.2-0.8,0.3-1.1,0.4c0.2,0.4,0.5,0.8,0.8,1c0.4,0.3,0.8,0.4,1.3,0.4
			c0.3,0,0.6-0.1,0.9-0.2c0.3-0.1,0.5-0.3,0.7-0.5L109.2,52.8z M109.1,49.7c-0.2-0.4-0.4-0.7-0.7-0.9s-0.7-0.3-1.1-0.3
			c-0.3,0-0.6,0.1-0.9,0.2c-0.3,0.1-0.5,0.3-0.7,0.5s-0.4,0.4-0.5,0.7c-0.1,0.3-0.2,0.6-0.2,0.9c0,0.1,0,0.2,0,0.3
			c0,0.1,0,0.2,0,0.3c0.3-0.1,0.6-0.3,1-0.4c0.3-0.1,0.7-0.3,1-0.4c0.4-0.1,0.7-0.3,1-0.4C108.4,50,108.8,49.9,109.1,49.7z"/>
		<path class="st3" d="M110.5,56l-0.4-0.3c0.2-0.2,0.4-0.5,0.6-0.9c0.1-0.4,0.2-0.8,0.2-1.2v-5.4h0.5v5.4c0,0.5-0.1,1-0.2,1.4
			C111,55.4,110.8,55.8,110.5,56z M110.8,46.3c0-0.1,0-0.2,0.1-0.3c0.1-0.1,0.2-0.1,0.3-0.1c0.1,0,0.2,0,0.3,0.1
			c0.1,0.1,0.1,0.2,0.1,0.3c0,0.1,0,0.2-0.1,0.3c-0.1,0.1-0.2,0.1-0.3,0.1c-0.1,0-0.2,0-0.3-0.1C110.8,46.5,110.8,46.4,110.8,46.3z"
			/>
		<path class="st3" d="M112.9,50.8c0-0.4,0.1-0.7,0.2-1.1c0.1-0.3,0.3-0.6,0.6-0.9c0.3-0.3,0.5-0.5,0.9-0.6c0.3-0.1,0.7-0.2,1.1-0.2
			s0.7,0.1,1.1,0.2c0.3,0.1,0.6,0.3,0.9,0.6c0.3,0.3,0.5,0.5,0.6,0.9c0.1,0.3,0.2,0.7,0.2,1.1s-0.1,0.7-0.2,1.1
			c-0.1,0.3-0.3,0.6-0.6,0.9c-0.3,0.2-0.5,0.4-0.9,0.6c-0.3,0.1-0.7,0.2-1.1,0.2c-0.4,0-0.7-0.1-1.1-0.2s-0.6-0.3-0.9-0.6
			c-0.2-0.2-0.4-0.5-0.6-0.9C113,51.6,112.9,51.2,112.9,50.8z M113.4,50.8c0,0.3,0.1,0.6,0.2,0.9c0.1,0.3,0.3,0.5,0.5,0.7
			c0.2,0.2,0.4,0.4,0.7,0.5c0.3,0.1,0.6,0.2,0.9,0.2c0.3,0,0.6-0.1,0.9-0.2c0.3-0.1,0.5-0.3,0.7-0.5c0.2-0.2,0.4-0.4,0.5-0.7
			c0.1-0.3,0.2-0.6,0.2-0.9s-0.1-0.6-0.2-0.9c-0.1-0.3-0.3-0.5-0.5-0.7c-0.2-0.2-0.5-0.4-0.7-0.5c-0.3-0.1-0.6-0.2-0.9-0.2
			c-0.3,0-0.6,0.1-0.9,0.2c-0.3,0.1-0.5,0.3-0.7,0.5s-0.4,0.5-0.5,0.7C113.5,50.2,113.4,50.5,113.4,50.8z"/>
		<path class="st3" d="M122.9,49.5l-0.6-1.3h0.4c0.4,0.9,0.8,1.8,1.1,2.5c0.3,0.8,0.6,1.5,0.9,2.2c0.1-0.4,0.3-0.7,0.5-1.1
			c0.2-0.4,0.3-0.7,0.5-1.1c0.2-0.4,0.3-0.8,0.5-1.2c0.2-0.4,0.4-0.8,0.6-1.3h0.5c-0.4,0.9-0.9,1.9-1.3,2.8
			c-0.4,0.9-0.8,1.9-1.2,2.8c-0.3-0.6-0.6-1.3-0.8-1.9s-0.5-1.3-0.8-1.9l-1.6,3.8l-2.5-5.6h0.5c0.2,0.5,0.4,0.9,0.6,1.3
			c0.2,0.4,0.3,0.8,0.5,1.2c0.2,0.4,0.3,0.8,0.5,1.1c0.2,0.4,0.3,0.7,0.5,1.1c0.2-0.5,0.4-1,0.6-1.5
			C122.4,50.8,122.6,50.2,122.9,49.5z"/>
		<path class="st3" d="M127.9,50.8c0-0.4,0.1-0.7,0.2-1.1c0.1-0.3,0.3-0.6,0.6-0.9c0.2-0.3,0.5-0.5,0.9-0.6c0.3-0.1,0.7-0.2,1.1-0.2
			c0.3,0,0.5,0,0.8,0.1c0.2,0.1,0.5,0.2,0.7,0.3s0.4,0.3,0.5,0.5c0.2,0.2,0.3,0.4,0.3,0.6c0-0.2,0-0.5,0-0.7c0-0.2,0-0.5,0-0.7h0.4
			v5.3H133v-1.4c-0.2,0.4-0.4,0.7-0.9,1c-0.4,0.3-0.9,0.4-1.5,0.4c-0.4,0-0.8-0.1-1.1-0.2c-0.3-0.1-0.6-0.3-0.9-0.6
			c-0.2-0.2-0.4-0.5-0.6-0.9S127.9,51.2,127.9,50.8z M128.4,50.8c0,0.3,0.1,0.6,0.2,0.9c0.1,0.3,0.3,0.5,0.5,0.7
			c0.2,0.2,0.5,0.4,0.7,0.5c0.3,0.1,0.6,0.2,0.9,0.2c0.3,0,0.6-0.1,0.9-0.2c0.3-0.1,0.5-0.3,0.7-0.5c0.2-0.2,0.4-0.4,0.5-0.7
			c0.1-0.3,0.2-0.6,0.2-0.9s-0.1-0.6-0.2-0.9s-0.3-0.5-0.5-0.7c-0.2-0.2-0.5-0.4-0.7-0.5c-0.3-0.1-0.6-0.2-0.9-0.2
			c-0.3,0-0.6,0.1-0.9,0.2c-0.3,0.1-0.5,0.3-0.7,0.5s-0.4,0.5-0.5,0.7C128.4,50.2,128.4,50.5,128.4,50.8z"/>
		<path class="st3" d="M140,53h4.4v0.5h-5.7c0.6-0.6,1.2-1.1,1.7-1.7c0.5-0.6,1-1.1,1.5-1.6c0.4-0.5,0.8-1,1-1.5
			c0.3-0.5,0.4-0.9,0.4-1.4c0-0.5-0.1-0.8-0.2-1.2c-0.1-0.3-0.3-0.6-0.5-0.7s-0.4-0.3-0.7-0.4c-0.2-0.1-0.5-0.1-0.7-0.1
			c-0.4,0-0.8,0.1-1,0.2s-0.5,0.3-0.6,0.6c-0.2,0.2-0.3,0.5-0.3,0.7c-0.1,0.3-0.1,0.5-0.1,0.7c0,0.3,0,0.6,0.1,0.9
			c0.1,0.3,0.2,0.5,0.4,0.7l-0.3,0.3c-0.2-0.2-0.4-0.5-0.5-0.8c-0.1-0.3-0.2-0.7-0.2-1c0-0.4,0.1-0.7,0.2-1s0.3-0.6,0.5-0.9
			c0.2-0.2,0.5-0.4,0.8-0.6c0.3-0.1,0.7-0.2,1.1-0.2c0.4,0,0.7,0.1,1,0.2c0.3,0.1,0.6,0.3,0.8,0.6c0.2,0.2,0.4,0.5,0.5,0.9
			s0.2,0.7,0.2,1.1c0,0.5-0.1,1-0.3,1.5c-0.2,0.5-0.5,1-0.9,1.5s-0.8,1-1.2,1.4C140.8,52.1,140.4,52.5,140,53z"/>
		<path class="st3" d="M151.4,47.6c0,0.7-0.1,1.3-0.4,1.9c-0.3,0.6-0.7,1.1-1.1,1.6c-0.4,0.5-0.9,0.9-1.5,1.4
			c-0.5,0.4-1,0.8-1.5,1.1l-0.3-0.4c0.5-0.3,1-0.7,1.4-1s0.8-0.7,1.1-1s0.6-0.6,0.8-0.9c0.2-0.3,0.4-0.5,0.5-0.8
			c-0.2,0.3-0.5,0.5-0.8,0.6c-0.3,0.2-0.6,0.2-1,0.2c-0.4,0-0.8-0.1-1.1-0.2c-0.3-0.2-0.7-0.4-0.9-0.6c-0.3-0.3-0.5-0.6-0.6-0.9
			c-0.2-0.3-0.2-0.7-0.2-1.1c0-0.4,0.1-0.8,0.2-1.1s0.4-0.6,0.6-0.9c0.3-0.3,0.6-0.5,0.9-0.6c0.3-0.2,0.7-0.2,1.1-0.2
			c0.4,0,0.7,0.1,1.1,0.2c0.3,0.1,0.6,0.3,0.9,0.6c0.3,0.3,0.5,0.6,0.6,0.9C151.4,46.8,151.4,47.2,151.4,47.6z M150.9,47.6
			c0-0.3-0.1-0.6-0.2-0.9c-0.1-0.3-0.3-0.5-0.5-0.7c-0.2-0.2-0.5-0.4-0.7-0.5c-0.3-0.1-0.6-0.2-0.9-0.2s-0.6,0.1-0.9,0.2
			c-0.3,0.1-0.5,0.3-0.8,0.5c-0.2,0.2-0.4,0.5-0.5,0.7c-0.1,0.3-0.2,0.6-0.2,0.9s0.1,0.6,0.2,0.9c0.1,0.3,0.3,0.5,0.5,0.7
			c0.2,0.2,0.5,0.4,0.8,0.5c0.3,0.1,0.6,0.2,0.9,0.2s0.6-0.1,0.9-0.2c0.3-0.1,0.5-0.3,0.7-0.5s0.4-0.5,0.5-0.7
			S150.9,47.9,150.9,47.6z"/>
		<path class="st3" d="M153.4,52.3l-1.2,2.8h-0.5c0.2-0.5,0.4-0.9,0.5-1.4c0.2-0.5,0.4-0.9,0.5-1.4H153.4z"/>
		<path class="st3" d="M159.9,48.7c0.4-0.6,0.9-1.2,1.3-1.8s0.9-1.2,1.3-1.8h-3.6v-0.5h4.5c-0.4,0.6-0.8,1.1-1.3,1.7
			c-0.4,0.6-0.8,1.1-1.3,1.7c0.4,0,0.7,0.1,1.1,0.3c0.3,0.2,0.6,0.3,0.9,0.6s0.4,0.5,0.6,0.9c0.1,0.3,0.2,0.7,0.2,1.1
			c0,0.4-0.1,0.8-0.2,1.1s-0.4,0.6-0.6,0.9c-0.3,0.3-0.6,0.5-0.9,0.6c-0.3,0.2-0.7,0.2-1.1,0.2c-0.4,0-0.8-0.1-1.2-0.3
			c-0.4-0.2-0.7-0.4-0.9-0.7l0.4-0.4c0.2,0.2,0.4,0.4,0.7,0.6s0.6,0.2,1,0.2c0.3,0,0.6-0.1,0.9-0.2c0.3-0.1,0.5-0.3,0.8-0.5
			c0.2-0.2,0.4-0.5,0.5-0.8c0.1-0.3,0.2-0.6,0.2-0.9c0-0.3-0.1-0.6-0.2-0.9c-0.1-0.3-0.3-0.5-0.5-0.7c-0.2-0.2-0.5-0.4-0.8-0.5
			c-0.3-0.1-0.6-0.2-0.9-0.2C160.5,48.4,160.2,48.5,159.9,48.7z"/>
		<path class="st3" d="M171,47.6c0,0.7-0.1,1.3-0.4,1.9c-0.3,0.6-0.7,1.1-1.1,1.6c-0.4,0.5-0.9,0.9-1.5,1.4c-0.5,0.4-1,0.8-1.5,1.1
			l-0.3-0.4c0.5-0.3,1-0.7,1.4-1s0.8-0.7,1.1-1s0.6-0.6,0.8-0.9c0.2-0.3,0.4-0.5,0.5-0.8c-0.2,0.3-0.5,0.5-0.8,0.6
			c-0.3,0.2-0.6,0.2-1,0.2c-0.4,0-0.8-0.1-1.1-0.2c-0.3-0.2-0.7-0.4-0.9-0.6c-0.3-0.3-0.5-0.6-0.6-0.9c-0.2-0.3-0.2-0.7-0.2-1.1
			c0-0.4,0.1-0.8,0.2-1.1s0.4-0.6,0.6-0.9c0.3-0.3,0.6-0.5,0.9-0.6c0.3-0.2,0.7-0.2,1.1-0.2c0.4,0,0.7,0.1,1.1,0.2
			c0.3,0.1,0.6,0.3,0.9,0.6c0.3,0.3,0.5,0.6,0.6,0.9C170.9,46.8,171,47.2,171,47.6z M170.5,47.6c0-0.3-0.1-0.6-0.2-0.9
			c-0.1-0.3-0.3-0.5-0.5-0.7c-0.2-0.2-0.5-0.4-0.7-0.5c-0.3-0.1-0.6-0.2-0.9-0.2s-0.6,0.1-0.9,0.2c-0.3,0.1-0.5,0.3-0.8,0.5
			c-0.2,0.2-0.4,0.5-0.5,0.7c-0.1,0.3-0.2,0.6-0.2,0.9s0.1,0.6,0.2,0.9c0.1,0.3,0.3,0.5,0.5,0.7c0.2,0.2,0.5,0.4,0.8,0.5
			c0.3,0.1,0.6,0.2,0.9,0.2s0.6-0.1,0.9-0.2c0.3-0.1,0.5-0.3,0.7-0.5s0.4-0.5,0.5-0.7S170.5,47.9,170.5,47.6z"/>
		<path class="st3" d="M172.7,51v-0.5h2.5V51H172.7z"/>
		<path class="st3" d="M178.2,53h4.4v0.5H177c0.6-0.6,1.2-1.1,1.7-1.7c0.5-0.6,1-1.1,1.5-1.6s0.8-1,1-1.5c0.3-0.5,0.4-0.9,0.4-1.4
			c0-0.5-0.1-0.8-0.2-1.2s-0.3-0.6-0.5-0.7s-0.4-0.3-0.7-0.4c-0.2-0.1-0.5-0.1-0.7-0.1c-0.4,0-0.8,0.1-1,0.2s-0.5,0.3-0.6,0.6
			c-0.2,0.2-0.3,0.5-0.3,0.7c-0.1,0.3-0.1,0.5-0.1,0.7c0,0.3,0,0.6,0.1,0.9c0.1,0.3,0.2,0.5,0.4,0.7l-0.3,0.3
			c-0.2-0.2-0.4-0.5-0.5-0.8s-0.2-0.7-0.2-1c0-0.4,0.1-0.7,0.2-1c0.1-0.3,0.3-0.6,0.5-0.9c0.2-0.2,0.5-0.4,0.8-0.6
			c0.3-0.1,0.7-0.2,1.1-0.2c0.4,0,0.7,0.1,1,0.2c0.3,0.1,0.6,0.3,0.8,0.6c0.2,0.2,0.4,0.5,0.5,0.9s0.2,0.7,0.2,1.1
			c0,0.5-0.1,1-0.3,1.5c-0.2,0.5-0.5,1-0.9,1.5s-0.8,1-1.2,1.4C179.1,52.1,178.7,52.5,178.2,53z"/>
		<path class="st3" d="M184.1,49c0-0.5,0.1-1.1,0.2-1.6c0.2-0.5,0.4-1,0.7-1.5c0.3-0.4,0.7-0.8,1.2-1.1c0.5-0.3,1-0.4,1.7-0.4
			c0.6,0,1.2,0.1,1.7,0.4c0.5,0.3,0.8,0.7,1.1,1.1c0.3,0.4,0.5,0.9,0.7,1.5s0.2,1.1,0.2,1.6c0,0.7-0.1,1.3-0.3,1.8s-0.5,1-0.8,1.4
			c-0.3,0.4-0.7,0.7-1.2,0.9c-0.5,0.2-0.9,0.3-1.4,0.3c-0.5,0-1-0.1-1.4-0.3s-0.8-0.6-1.2-1c-0.3-0.4-0.6-0.9-0.8-1.5
			C184.1,50.3,184.1,49.6,184.1,49z M184.6,49c0,0.6,0.1,1.2,0.2,1.7c0.2,0.5,0.4,0.9,0.7,1.3c0.3,0.4,0.6,0.6,1,0.9
			s0.8,0.3,1.2,0.3c0.4,0,0.8-0.1,1.2-0.3s0.7-0.5,1-0.8s0.5-0.8,0.7-1.3c0.2-0.5,0.3-1.1,0.3-1.7c0-0.6-0.1-1.1-0.2-1.6
			c-0.1-0.5-0.4-0.9-0.6-1.3c-0.3-0.4-0.6-0.7-1-0.9c-0.4-0.2-0.8-0.3-1.3-0.3c-0.5,0-0.9,0.1-1.3,0.3c-0.4,0.2-0.7,0.5-1,0.9
			c-0.3,0.4-0.5,0.8-0.7,1.3C184.6,47.9,184.6,48.4,184.6,49z"/>
		<path class="st3" d="M193.1,49c0-0.5,0.1-1.1,0.2-1.6c0.2-0.5,0.4-1,0.7-1.5c0.3-0.4,0.7-0.8,1.2-1.1c0.5-0.3,1-0.4,1.7-0.4
			c0.6,0,1.2,0.1,1.7,0.4c0.5,0.3,0.8,0.7,1.1,1.1c0.3,0.4,0.5,0.9,0.7,1.5s0.2,1.1,0.2,1.6c0,0.7-0.1,1.3-0.3,1.8s-0.5,1-0.8,1.4
			c-0.3,0.4-0.7,0.7-1.2,0.9c-0.5,0.2-0.9,0.3-1.4,0.3c-0.5,0-1-0.1-1.4-0.3s-0.8-0.6-1.2-1c-0.3-0.4-0.6-0.9-0.8-1.5
			C193.2,50.3,193.1,49.6,193.1,49z M193.6,49c0,0.6,0.1,1.2,0.2,1.7c0.2,0.5,0.4,0.9,0.7,1.3c0.3,0.4,0.6,0.6,1,0.9
			c0.4,0.2,0.8,0.3,1.2,0.3c0.4,0,0.8-0.1,1.2-0.3s0.7-0.5,1-0.8s0.5-0.8,0.7-1.3c0.2-0.5,0.3-1.1,0.3-1.7c0-0.6-0.1-1.1-0.2-1.6
			s-0.4-0.9-0.6-1.3c-0.3-0.4-0.6-0.7-1-0.9c-0.4-0.2-0.8-0.3-1.3-0.3c-0.5,0-0.9,0.1-1.3,0.3c-0.4,0.2-0.7,0.5-1,0.9
			c-0.3,0.4-0.5,0.8-0.7,1.3C193.7,47.9,193.6,48.4,193.6,49z"/>
		<path class="st3" d="M206.3,43.8h2.1c1,0,1.8,0.1,2.5,0.4c0.7,0.3,1.2,0.7,1.7,1.2s0.7,1,0.9,1.6c0.2,0.6,0.3,1.2,0.3,1.7
			c0,0.7-0.1,1.4-0.4,2c-0.3,0.6-0.6,1.1-1.1,1.5s-1,0.7-1.6,1c-0.6,0.2-1.2,0.3-1.9,0.3h-2.6V43.8z M208.9,52.9
			c0.6,0,1.2-0.1,1.7-0.3c0.5-0.2,1-0.5,1.4-0.8c0.4-0.4,0.7-0.8,0.9-1.4s0.3-1.1,0.3-1.8c0-0.5-0.1-1.1-0.3-1.6s-0.5-1-0.8-1.4
			c-0.4-0.4-0.9-0.7-1.4-1s-1.2-0.4-2-0.4h-1.8v8.6H208.9z"/>
		<path class="st3" d="M217.7,53.5h-0.4v0.1v0c-0.4,0-0.7-0.1-1-0.3c-0.3-0.2-0.6-0.3-0.8-0.6c-0.2-0.2-0.4-0.5-0.6-0.9
			s-0.2-0.7-0.2-1c0-0.4,0.1-0.7,0.2-1.1c0.1-0.3,0.3-0.6,0.6-0.9c0.2-0.3,0.5-0.5,0.9-0.6c0.3-0.1,0.7-0.2,1.1-0.2
			c0.6,0,1.1,0.2,1.5,0.5s0.7,0.8,0.9,1.3c-0.3,0.1-0.7,0.3-1.1,0.4c-0.4,0.2-0.8,0.3-1.2,0.5c-0.4,0.2-0.8,0.3-1.2,0.5
			c-0.4,0.2-0.8,0.3-1.1,0.4c0.2,0.4,0.5,0.8,0.8,1c0.4,0.3,0.8,0.4,1.3,0.4c0.3,0,0.6-0.1,0.9-0.2c0.3-0.1,0.5-0.3,0.7-0.5l0.4,0.3
			c-0.2,0.2-0.5,0.4-0.8,0.5C218.4,53.5,218.1,53.5,217.7,53.5L217.7,53.5z M219.3,49.7c-0.2-0.4-0.4-0.7-0.7-0.9s-0.7-0.3-1.1-0.3
			c-0.3,0-0.6,0.1-0.9,0.2c-0.3,0.1-0.5,0.3-0.7,0.5s-0.4,0.4-0.5,0.7c-0.1,0.3-0.2,0.6-0.2,0.9c0,0.1,0,0.2,0,0.3
			c0,0.1,0,0.2,0,0.3c0.3-0.1,0.6-0.3,1-0.4c0.3-0.1,0.7-0.3,1-0.4c0.4-0.1,0.7-0.3,1-0.4C218.7,50,219,49.9,219.3,49.7z
			 M217.5,53.6h-0.2c0,0.2-0.1,0.4-0.2,0.5c-0.1,0.1-0.3,0.2-0.4,0.2c-0.2,0.1-0.3,0.3-0.4,0.5c-0.1,0.2-0.1,0.3-0.1,0.5
			c0,0.4,0.1,0.8,0.4,1s0.5,0.4,0.9,0.4c0.3,0,0.5-0.1,0.7-0.2c0.2-0.1,0.4-0.4,0.5-0.7l-0.3-0.2c0,0.2-0.1,0.3-0.3,0.4
			c-0.2,0.1-0.3,0.2-0.5,0.2c-0.3,0-0.5-0.1-0.6-0.3s-0.2-0.4-0.2-0.7c0-0.2,0.1-0.4,0.2-0.5c0.1-0.1,0.2-0.2,0.4-0.3
			c0.1-0.1,0.3-0.2,0.4-0.3s0.2-0.2,0.2-0.4v-0.2C217.7,53.6,217.6,53.6,217.5,53.6z"/>
		<path class="st3" d="M226.8,50.8c0,0.4-0.1,0.7-0.2,1.1s-0.3,0.6-0.6,0.9c-0.2,0.2-0.5,0.4-0.9,0.6c-0.3,0.1-0.7,0.2-1.1,0.2
			c-0.5,0-1-0.1-1.4-0.4c-0.4-0.3-0.7-0.6-0.9-1c0,0.1,0,0.2,0,0.3c0,0.1,0,0.2,0,0.3v0.7h-0.5V43.1h0.5v6.4
			c0.1-0.2,0.2-0.4,0.4-0.6c0.2-0.2,0.3-0.3,0.5-0.5s0.4-0.2,0.7-0.3c0.2-0.1,0.5-0.1,0.8-0.1c0.4,0,0.7,0.1,1.1,0.2
			s0.6,0.3,0.9,0.6c0.2,0.2,0.4,0.5,0.6,0.9C226.7,50.1,226.8,50.4,226.8,50.8z M226.3,50.8c0-0.3-0.1-0.6-0.2-0.9
			c-0.1-0.3-0.3-0.5-0.5-0.7s-0.4-0.4-0.7-0.5c-0.3-0.1-0.6-0.2-0.9-0.2c-0.3,0-0.6,0.1-0.9,0.2c-0.3,0.1-0.5,0.3-0.7,0.5
			c-0.2,0.2-0.4,0.5-0.5,0.7s-0.2,0.6-0.2,0.9s0.1,0.6,0.2,0.9c0.1,0.3,0.3,0.5,0.5,0.7c0.2,0.2,0.5,0.4,0.7,0.5
			c0.3,0.1,0.6,0.2,0.9,0.2c0.3,0,0.6-0.1,0.9-0.2c0.3-0.1,0.5-0.3,0.7-0.5c0.2-0.2,0.4-0.4,0.5-0.7
			C226.2,51.4,226.3,51.1,226.3,50.8z"/>
		<path class="st3" d="M228.1,46.3c0-0.1,0-0.2,0.1-0.3c0.1-0.1,0.2-0.1,0.3-0.1c0.1,0,0.2,0,0.3,0.1c0.1,0.1,0.1,0.2,0.1,0.3
			c0,0.1,0,0.2-0.1,0.3c-0.1,0.1-0.2,0.1-0.3,0.1c-0.1,0-0.2,0-0.3-0.1C228.2,46.5,228.1,46.4,228.1,46.3z M228.8,53.5h-0.5v-5.3
			h0.5V53.5z"/>
		<path class="st3" d="M234.5,52.6c0.1,0.1,0.1,0.1,0.2,0.2s0.1,0.1,0.1,0.2c-0.2,0.2-0.5,0.3-0.8,0.4c-0.3,0.1-0.6,0.2-0.9,0.2
			c-0.4,0-0.7-0.1-1.1-0.2c-0.3-0.1-0.6-0.3-0.9-0.6c-0.3-0.2-0.4-0.5-0.6-0.9c-0.1-0.3-0.2-0.7-0.2-1.1s0.1-0.7,0.2-1.1
			c0.1-0.3,0.3-0.6,0.6-0.9c0.3-0.2,0.5-0.4,0.9-0.6c0.3-0.1,0.7-0.2,1.1-0.2c0.3,0,0.7,0.1,1,0.2s0.6,0.3,0.8,0.4
			c0,0.1-0.1,0.1-0.2,0.2s-0.1,0.1-0.2,0.2c-0.2-0.2-0.4-0.3-0.7-0.4c-0.2-0.1-0.5-0.1-0.8-0.1c-0.3,0-0.6,0.1-0.9,0.2
			c-0.3,0.1-0.5,0.3-0.7,0.5c-0.2,0.2-0.4,0.5-0.5,0.7s-0.2,0.6-0.2,0.9s0.1,0.6,0.2,0.9c0.1,0.3,0.3,0.5,0.5,0.7
			c0.2,0.2,0.4,0.4,0.7,0.5c0.3,0.1,0.6,0.2,0.9,0.2c0.3,0,0.5,0,0.8-0.1C234.1,52.9,234.3,52.8,234.5,52.6z"/>
		<path class="st3" d="M235.6,50.8c0-0.4,0.1-0.7,0.2-1.1c0.1-0.3,0.3-0.6,0.6-0.9c0.2-0.3,0.5-0.5,0.9-0.6c0.3-0.1,0.7-0.2,1.1-0.2
			c0.3,0,0.5,0,0.8,0.1c0.2,0.1,0.5,0.2,0.7,0.3s0.4,0.3,0.5,0.5c0.2,0.2,0.3,0.4,0.3,0.6c0-0.2,0-0.5,0-0.7s0-0.5,0-0.7h0.4v5.3
			h-0.5v-1.4c-0.2,0.4-0.4,0.7-0.9,1c-0.4,0.3-0.9,0.4-1.5,0.4c-0.4,0-0.8-0.1-1.1-0.2c-0.3-0.1-0.6-0.3-0.9-0.6
			c-0.2-0.2-0.4-0.5-0.6-0.9C235.6,51.6,235.6,51.2,235.6,50.8z M236,50.8c0,0.3,0.1,0.6,0.2,0.9c0.1,0.3,0.3,0.5,0.5,0.7
			c0.2,0.2,0.5,0.4,0.7,0.5c0.3,0.1,0.6,0.2,0.9,0.2s0.6-0.1,0.9-0.2c0.3-0.1,0.5-0.3,0.7-0.5c0.2-0.2,0.4-0.4,0.5-0.7
			c0.1-0.3,0.2-0.6,0.2-0.9s-0.1-0.6-0.2-0.9c-0.1-0.3-0.3-0.5-0.5-0.7s-0.5-0.4-0.7-0.5c-0.3-0.1-0.6-0.2-0.9-0.2s-0.6,0.1-0.9,0.2
			c-0.3,0.1-0.5,0.3-0.7,0.5c-0.2,0.2-0.4,0.5-0.5,0.7S236,50.5,236,50.8z"/>
	</g>
	<g class="st2">
		<path class="st3" d="M47.2,12.4c-4,0-7.2,3.3-7.2,7.2s3.3,7.2,7.2,7.2s7.2-3.3,7.2-7.2S51.2,12.4,47.2,12.4z M47.2,24.8
			c-2.9,0-5.2-2.3-5.2-5.2s2.3-5.2,5.2-5.2s5.2,2.3,5.2,5.2S50.1,24.8,47.2,24.8z"/>
		<path class="st3" d="M61.1,5.8C57.3,2.1,52.4,0,47.1,0c-5.3,0-10.3,2.1-14,5.8c-6.9,6.9-7.8,20-1.9,27.9l15.9,23l15.9-22.9
			C68.9,25.8,68,12.8,61.1,5.8z M61.3,32.5L47.1,53.1L32.8,32.5c-5.4-7.2-4.6-19,1.7-25.2c3.4-3.4,7.8-5.2,12.6-5.2
			s9.2,1.9,12.6,5.2C65.9,13.5,66.7,25.3,61.3,32.5z"/>
	</g>
</g>
<g id="Layer_3">
	<g>
		<path class="st3" d="M79.8,18.8v-3.5h5.8v23.6h-3.7v-20H79.8z"/>
		<path class="st3" d="M89,32.9c1.1-1.4,2.2-2.9,3.4-4.4c1.2-1.5,2.4-3,3.6-4.5c1.2-1.5,2.4-3,3.6-4.5c1.2-1.5,2.4-3,3.4-4.4v14.3
			h3.5v3.5h-3.5v6h-3.7v-6H89z M99.5,24.9c-0.2,0.2-0.4,0.6-0.8,0.9c-0.3,0.4-0.6,0.8-0.9,1.2c-0.3,0.4-0.6,0.8-0.9,1.3
			c-0.3,0.4-0.5,0.7-0.7,1h3.4V24.9z"/>
		<path class="st3" d="M117.5,31.1c0-1.3,0.2-2.5,0.6-3.6c0.4-1.1,0.9-2.2,1.6-3.2c0.7-1,1.4-1.9,2.3-2.8c0.8-0.8,1.7-1.6,2.6-2.3
			c0.9-0.7,1.7-1.4,2.5-1.9c0.8-0.6,1.5-1.1,2.2-1.6c0.4,0.5,0.8,0.9,1.2,1.4c0.4,0.5,0.7,0.9,1.1,1.4c-0.5,0.4-1.2,0.8-1.9,1.3
			c-0.7,0.5-1.4,1-2.1,1.4c-0.7,0.5-1.3,0.9-1.9,1.4c-0.6,0.4-1,0.8-1.3,1.1c0.3-0.3,0.7-0.5,1.1-0.5c1.1,0,2.1,0.2,3.1,0.6
			c1,0.4,1.9,1,2.6,1.7c0.7,0.7,1.3,1.6,1.8,2.5c0.4,1,0.6,2,0.6,3.1c0,1.1-0.2,2.2-0.6,3.1c-0.4,1-1,1.8-1.8,2.6
			c-0.7,0.7-1.6,1.3-2.6,1.7c-1,0.4-2,0.6-3.1,0.6c-0.9,0-1.8-0.2-2.7-0.5c-0.9-0.3-1.8-0.8-2.6-1.4c-0.8-0.6-1.4-1.5-1.9-2.5
			C117.8,33.8,117.5,32.6,117.5,31.1z M121.3,31.1c0,0.6,0.1,1.2,0.3,1.7c0.2,0.5,0.5,1,0.9,1.4c0.4,0.4,0.8,0.7,1.3,1
			c0.5,0.2,1.1,0.4,1.7,0.4s1.2-0.1,1.7-0.4c0.5-0.2,1-0.6,1.4-1c0.4-0.4,0.7-0.9,0.9-1.4c0.2-0.5,0.4-1.1,0.4-1.7
			c0-0.6-0.1-1.2-0.4-1.7c-0.2-0.5-0.6-1-1-1.4c-0.4-0.4-0.9-0.7-1.4-0.9c-0.5-0.2-1.1-0.3-1.7-0.3s-1.1,0.1-1.7,0.3
			c-0.5,0.2-1,0.5-1.3,0.9c-0.4,0.4-0.7,0.9-0.9,1.4C121.4,30,121.3,30.6,121.3,31.1z"/>
		<path class="st3" d="M145.7,35.3h7.7v3.6h-16.5c1.5-1.5,2.9-2.9,4.3-4.3c1.4-1.4,2.6-2.7,3.7-4.1s1.9-2.6,2.6-3.8
			c0.7-1.2,1-2.4,1-3.6c0-0.8-0.1-1.4-0.4-2c-0.3-0.6-0.6-1-1-1.4c-0.4-0.4-0.8-0.6-1.3-0.8c-0.5-0.2-0.9-0.3-1.3-0.3
			c-0.8,0-1.5,0.1-2.1,0.4c-0.5,0.3-1,0.6-1.3,1.1c-0.3,0.4-0.5,0.8-0.7,1.3c-0.1,0.5-0.2,0.8-0.2,1.1c0,0.8,0.1,1.5,0.4,2.1
			c0.3,0.6,0.6,1.1,1.1,1.6l-2.2,2.3c-0.5-0.2-0.9-0.6-1.3-1.1c-0.4-0.5-0.7-1-0.9-1.6c-0.3-0.6-0.4-1.1-0.6-1.7
			c-0.1-0.6-0.2-1.1-0.2-1.5c0-1,0.2-1.9,0.5-2.8c0.3-0.9,0.9-1.7,1.5-2.4c0.7-0.7,1.5-1.2,2.5-1.7c1-0.4,2.1-0.6,3.4-0.6
			c1.2,0,2.2,0.2,3.2,0.6c1,0.4,1.8,1,2.5,1.7c0.7,0.7,1.2,1.5,1.6,2.4s0.6,1.9,0.6,2.9c0,1.1-0.2,2.3-0.5,3.3
			c-0.3,1.1-0.8,2.1-1.4,3.2c-0.6,1-1.3,2.1-2.1,3.1C147.4,33.2,146.6,34.3,145.7,35.3z"/>
		<path class="st3" d="M155.9,18.9v-3.6H171c-1.6,4.1-3.2,8.1-4.7,11.9s-3,7.7-4.5,11.6h-4.2c1.1-3,2.4-6.3,3.7-9.7
			c1.3-3.4,2.6-6.8,3.9-10.3H155.9z"/>
		<path class="st3" d="M196.9,23.7c0,1.3-0.2,2.5-0.6,3.6c-0.4,1.1-0.9,2.2-1.6,3.2c-0.7,1-1.4,1.9-2.2,2.8
			c-0.8,0.9-1.7,1.6-2.6,2.4c-0.9,0.7-1.7,1.4-2.6,1.9c-0.8,0.6-1.6,1.1-2.2,1.6c-0.4-0.5-0.8-0.9-1.2-1.4c-0.4-0.5-0.7-0.9-1.1-1.4
			c0.6-0.4,1.2-0.8,1.9-1.3s1.4-1,2.2-1.5c0.7-0.5,1.4-1,1.9-1.4c0.6-0.4,1-0.8,1.3-1.1c-0.3,0.4-0.8,0.6-1.3,0.6
			c-1.1,0-2.1-0.2-3.1-0.6c-1-0.4-1.9-1-2.6-1.7c-0.7-0.7-1.3-1.5-1.8-2.5c-0.4-1-0.6-2-0.6-3.1c0-1.1,0.2-2.1,0.6-3.1
			c0.4-1,1-1.8,1.8-2.6c0.7-0.7,1.6-1.3,2.6-1.7s2-0.6,3.1-0.6c0.9,0,1.8,0.2,2.7,0.5c0.9,0.3,1.8,0.8,2.6,1.4
			c0.8,0.6,1.4,1.5,1.9,2.5C196.7,21.1,196.9,22.3,196.9,23.7z M193.1,23.7c0-0.6-0.1-1.2-0.3-1.7c-0.2-0.5-0.5-1-0.9-1.4
			c-0.4-0.4-0.8-0.7-1.3-1c-0.5-0.2-1.1-0.4-1.7-0.4c-0.6,0-1.2,0.1-1.7,0.4c-0.5,0.2-1,0.6-1.4,1c-0.4,0.4-0.7,0.9-1,1.4
			c-0.2,0.5-0.4,1.1-0.4,1.7c0,0.6,0.1,1.2,0.4,1.7s0.6,1,1,1.4c0.4,0.4,0.9,0.7,1.4,0.9c0.5,0.2,1.1,0.3,1.7,0.3
			c0.6,0,1.1-0.1,1.7-0.3c0.5-0.2,1-0.5,1.3-0.9s0.7-0.9,0.9-1.4C193,24.9,193.1,24.3,193.1,23.7z"/>
		<path class="st3" d="M200,27c0-2,0.3-3.8,0.8-5.3c0.5-1.5,1.2-2.8,2.1-3.8c0.9-1,1.9-1.7,3.1-2.2c1.2-0.5,2.4-0.7,3.7-0.7
			c1.4,0,2.7,0.3,3.9,0.8c1.2,0.6,2.2,1.4,3.1,2.4c0.9,1,1.5,2.3,2,3.8c0.5,1.5,0.7,3.2,0.7,5.1c0,1.9-0.3,3.6-0.8,5.1
			s-1.2,2.8-2.1,3.8c-0.9,1-1.9,1.8-3.1,2.3c-1.2,0.5-2.5,0.8-3.9,0.8c-1.3,0-2.6-0.3-3.8-0.8s-2.2-1.3-3.1-2.3
			c-0.9-1-1.6-2.3-2.1-3.8C200.3,30.7,200,28.9,200,27z M203.7,27.1c0,1.1,0.1,2.2,0.4,3.3s0.7,1.9,1.3,2.7c0.5,0.8,1.2,1.4,1.9,1.9
			c0.7,0.5,1.5,0.7,2.4,0.7s1.6-0.2,2.4-0.7s1.4-1.1,1.9-1.8c0.5-0.8,1-1.7,1.3-2.7c0.3-1,0.5-2.1,0.5-3.3c0-0.8-0.1-1.6-0.3-2.6
			c-0.2-1-0.5-1.9-0.9-2.8c-0.4-0.9-1-1.6-1.8-2.2c-0.8-0.6-1.7-0.9-2.9-0.9c-1.2,0-2.3,0.3-3,1c-0.8,0.6-1.4,1.4-1.9,2.3
			s-0.8,1.8-0.9,2.8C203.8,25.6,203.7,26.4,203.7,27.1z"/>
		<path class="st3" d="M239.9,35.3h7.7v3.6h-16.5c1.5-1.5,2.9-2.9,4.3-4.3c1.4-1.4,2.6-2.7,3.7-4.1c1.1-1.3,1.9-2.6,2.6-3.8
			c0.7-1.2,1-2.4,1-3.6c0-0.8-0.1-1.4-0.4-2c-0.3-0.6-0.6-1-1-1.4c-0.4-0.4-0.8-0.6-1.3-0.8c-0.5-0.2-0.9-0.3-1.3-0.3
			c-0.8,0-1.5,0.1-2.1,0.4c-0.5,0.3-1,0.6-1.3,1.1c-0.3,0.4-0.5,0.8-0.7,1.3c-0.1,0.5-0.2,0.8-0.2,1.1c0,0.8,0.1,1.5,0.4,2.1
			c0.3,0.6,0.6,1.1,1.1,1.6l-2.2,2.3c-0.5-0.2-0.9-0.6-1.3-1.1c-0.4-0.5-0.7-1-0.9-1.6c-0.3-0.6-0.4-1.1-0.6-1.7
			c-0.1-0.6-0.2-1.1-0.2-1.5c0-1,0.2-1.9,0.5-2.8c0.3-0.9,0.9-1.7,1.5-2.4c0.7-0.7,1.5-1.2,2.5-1.7c1-0.4,2.1-0.6,3.4-0.6
			c1.2,0,2.2,0.2,3.2,0.6c1,0.4,1.8,1,2.5,1.7c0.7,0.7,1.2,1.5,1.6,2.4s0.6,1.9,0.6,2.9c0,1.1-0.2,2.3-0.5,3.3
			c-0.3,1.1-0.8,2.1-1.4,3.2c-0.6,1-1.3,2.1-2.1,3.1C241.6,33.2,240.7,34.3,239.9,35.3z"/>
		<path class="st3" d="M266.5,23.7c0,1.3-0.2,2.5-0.6,3.6c-0.4,1.1-0.9,2.2-1.6,3.2c-0.7,1-1.4,1.9-2.2,2.8
			c-0.8,0.9-1.7,1.6-2.6,2.4c-0.9,0.7-1.7,1.4-2.6,1.9c-0.8,0.6-1.6,1.1-2.2,1.6c-0.4-0.5-0.8-0.9-1.2-1.4c-0.4-0.5-0.7-0.9-1.1-1.4
			c0.6-0.4,1.2-0.8,1.9-1.3s1.4-1,2.2-1.5c0.7-0.5,1.4-1,1.9-1.4c0.6-0.4,1-0.8,1.3-1.1c-0.3,0.4-0.8,0.6-1.3,0.6
			c-1.1,0-2.1-0.2-3.1-0.6c-1-0.4-1.9-1-2.6-1.7c-0.7-0.7-1.3-1.5-1.8-2.5c-0.4-1-0.6-2-0.6-3.1c0-1.1,0.2-2.1,0.6-3.1
			c0.4-1,1-1.8,1.8-2.6c0.7-0.7,1.6-1.3,2.6-1.7s2-0.6,3.1-0.6c0.9,0,1.8,0.2,2.7,0.5c0.9,0.3,1.8,0.8,2.6,1.4
			c0.8,0.6,1.4,1.5,1.9,2.5C266.3,21.1,266.5,22.3,266.5,23.7z M262.7,23.7c0-0.6-0.1-1.2-0.3-1.7c-0.2-0.5-0.5-1-0.9-1.4
			c-0.4-0.4-0.8-0.7-1.3-1c-0.5-0.2-1.1-0.4-1.7-0.4c-0.6,0-1.2,0.1-1.7,0.4c-0.5,0.2-1,0.6-1.4,1c-0.4,0.4-0.7,0.9-1,1.4
			c-0.2,0.5-0.4,1.1-0.4,1.7c0,0.6,0.1,1.2,0.4,1.7s0.6,1,1,1.4c0.4,0.4,0.9,0.7,1.4,0.9c0.5,0.2,1.1,0.3,1.7,0.3
			c0.6,0,1.1-0.1,1.7-0.3c0.5-0.2,1-0.5,1.3-0.9s0.7-0.9,0.9-1.4C262.6,24.9,262.7,24.3,262.7,23.7z"/>
	</g>
	<path class="st3" d="M58,46.7c-0.2-1.4-1-2.5-2.2-3.2l-14-8.1c-1.7-1-3.9-0.7-5.3,0.7l-2.8,2.8c-0.7,0.7-1.9,0.8-2.7,0.2
		c-2.2-1.7-4.3-3.7-6.4-5.7c-2-2-4-4.2-5.7-6.4c-0.6-0.8-0.6-2,0.2-2.7l2.8-2.8c1.4-1.4,1.7-3.6,0.7-5.3l-8.1-14
		c-0.7-1.2-1.9-2-3.2-2.2C10-0.1,8.6,0.3,7.7,1.3L3.5,5.4c-2.9,2.9-2.9,8.2-0.1,14.9c2.7,6.5,7.8,13.6,14.2,20
		c6.5,6.5,13.6,11.5,20,14.2c3.3,1.4,6.3,2.1,8.8,2.1c2.6,0,4.7-0.7,6.1-2.2l4.2-4.2C57.7,49.4,58.2,48,58,46.7z M10.8,1.8
		c0.1,0,0.2,0,0.3,0C11.9,2,12.6,2.4,13,3.1l8.1,14c0.6,1,0.4,2.3-0.4,3.1l-0.7,0.7L9.3,2.3C9.7,2,10.2,1.8,10.8,1.8z M51.3,53.2
		c-2.3,2.3-7,2.2-12.9-0.3c-6.3-2.6-13.2-7.5-19.5-13.8C12.6,32.8,7.7,25.9,5.1,19.6C2.6,13.7,2.5,9,4.8,6.7l3.1-3.1l10.7,18.6
		l-0.7,0.7c-1.4,1.4-1.5,3.6-0.3,5.1c1.8,2.2,3.8,4.4,5.8,6.5c2.1,2.1,4.3,4.1,6.5,5.8c1.5,1.2,3.7,1.1,5.1-0.3l0.7-0.7l18.6,10.6
		L51.3,53.2z M55.7,48.7L37.1,38.1l0.8-0.8c0.8-0.8,2.1-1,3.1-0.4l14,8.1c0.7,0.4,1.1,1.1,1.3,1.9C56.2,47.6,56.1,48.2,55.7,48.7z"
		/>
</g>
</svg>
