<?xml version="1.0" encoding="utf-8"?>
<!-- Generator: Adobe Illustrator 19.2.1, SVG Export Plug-In . SVG Version: 6.00 Build 0)  -->
<svg version="1.1" id="Layer_1" xmlns="http://www.w3.org/2000/svg" xmlns:xlink="http://www.w3.org/1999/xlink" x="0px" y="0px"
	 viewBox="0 0 460 200" style="enable-background:new 0 0 460 200;" xml:space="preserve">
<style type="text/css">
	.st0{fill:#FFFFFF;}
</style>
<g>
	<path class="st0" d="M251.2,7.6c5.6-3.7,14.8-3.6,18.3,2.9c3,7.2,1.1,15.3-0.7,22.6c-3,8.2-6.4,16.3-10.5,23.9
		c-5.4,9.7-13.1,17.8-20.4,26.1c-4.7,5.2-11.8,8.6-14.5,15.6c-1.9,5.6-3.4,11.3-3.4,17.3c12.8-0.2,24.8-7.1,33-16.7
		c6.1-7.2,7.6-17,12.2-25.2c7.4-13.6,18.7-25.9,33.9-30.4c4.5-1,9.2-1,13.7-0.2c5.2,1.9,8.7,7.4,8.2,12.8c-1,14-10.3,26.8-23.1,32.3
		c-7.7,3.7-16.6,4.1-24.8,5.9c-1.9,5.7-1.7,13.1,3.1,17.4c3.2,3.7,8.7,2.6,13.1,2.1c14.1-4,24.8-15.2,31.4-27.8
		c3.4-6.9,7.9-13.5,9.2-21.2c2.5-9.5,4.1-19.2,7.1-28.5c1.6-5.6,8.4-6.5,13.3-6c-0.1,7.4-2.4,14.6-4.1,21.7
		c-4.2,15.8-8.2,31.7-12.2,47.6c-0.6,2.5-0.5,5.1-0.5,7.6c14.6-9.8,23.1-25.9,30.7-41.3c6-16.5,15.5-31.9,29.4-42.8
		c11.1-9.3,26.4-13.7,40.8-11.1c2.4,0.6,4.7,1.5,6.4,3.4c1.4,3.5-1.6,6.4-3.5,9c-7.9-0.2-15.7-3.5-23.6-1.1
		c-13.5,4.1-22.9,15.8-29.2,28c-5.2,9.6-8.7,20.7-7.5,31.8c0.1,2.4,1.6,5.1,4.4,4.7c5.6,0.6,9.7-4,13-8c7.6-9.7,12.8-21.1,17.4-32.4
		c2.5-5.9,2.7-12.8,7-17.9c2.9-3.2,7.5-1.5,11-0.5c-1,7.2-3.4,14.2-4.9,21.3c-1.6,8.1-4.9,16-4.1,24.3c0.7,0.4,2.4,1.2,3.1,1.7
		c8-2.4,12.3-10.2,16.3-16.8c4-6.4,6.7-13.3,10-19.9c0.9-2.5,3.9-1.9,5.9-2.2c-0.2,2-0.4,4-1.1,5.9c-7.5,15.3-14.6,32-29,42.1
		c-4.7,2.7-11.7,5.1-16,0.5c-2.7-4.2-1.9-9.6-2.2-14.5c-5,6.9-8.2,15.2-15.1,20.6c-6.4,5.5-15,10.6-23.6,8.1
		c-5.7-2.6-7.4-9.2-8.6-14.8c-6.4,10.8-14.5,20.8-24.3,28.8c-3.1,2.5-7.2,4.4-8,8.7c-3.6,14.1-7,29-17.3,39.9
		c-5.7,6.2-14.5,11-23.1,8.6c-4.5-0.7-8.5-4.9-8.4-9.6c-0.9-8,4-15,8.7-20.8c7.1-8,15.7-14.5,24.4-20.4c3.6-2.2,4.6-6.6,5.7-10.3
		c1.4-5.2,3.1-10.3,3.9-15.7c-3.6,5-6.7,10.3-11,14.8c-8.4,8.6-18.9,15.5-31,17.1c-7,0.7-14.7-0.7-19.4-6.2
		c-3.9-3.9-4.7-9.3-5.2-14.6c-3.9,3-7.2,6.6-11.5,9.2c-5,3.1-10.6,5.1-16.1,7.1c9.1,9.1,10.3,22.8,8.6,34.9
		c-2,11.8-6.9,23.6-15.7,31.9c-4.1,4-9.7,6.9-15.6,6.4c-4.5-0.2-8.1-4-8.7-8.2c-2.4-10.7,0.2-21.7,1.4-32.4
		c0.7-8.5,3.1-16.6,3.2-25.2c-3.7,7-9,13.1-14.8,18.6c-4.9,3.9-11.7,7.9-17.9,4.6c-4.7-3.9-3.6-10.6-3.9-16
		c-5.7,9.7-11.7,19.9-21.8,25.6c-5.2,3-11.8,5-17.6,2.7c-5.2-3-6.9-9.6-7.4-15.2c0.5-18.3,9-35.6,20.3-49.7
		c9.1-10.6,20.7-19.9,34.8-22.6c7.7-1.4,16.8-2.2,23.7,2.4c3.6,3.9-1.6,8.5-4.7,10.7c-9.2-2.9-19.8-4-28.5,0.9
		c-11.6,6.7-19.1,18.6-24.6,30.4c-3.4,8.8-6.5,18.6-4.5,27.9c0.9,4.1,5.7,3.9,8.8,2.7c4-2.1,6.9-5.9,9.7-9.3
		c7.7-10.6,13.1-22.7,17.3-34.9c1.7-5,2.1-11.2,6.7-14.6c3-1.6,6.5-0.4,9.6,0.5c-0.7,8.2-3.6,16.1-5.2,24.2
		c-1.4,6.7-4,13.2-3.4,20.2c0,2.4,2.9,3.9,4.9,2.6c6-3.1,10-8.8,13.6-14.2c4.6-7.4,9.1-15,11.5-23.3C211,91,214,78.5,218.4,66.6
		c3.5-9.7,6.5-19.7,10.8-29.2C234.7,26.3,240.4,14.5,251.2,7.6z M255.3,17.1c-2,1.6-4.2,3.1-5.6,5.4c-6.7,10.7-10.7,22.8-15,34.7
		c-2.2,8-5.6,15.7-6.1,24.1c13.7-14.5,23.6-32.5,28.8-51.7c0.7-3.4,0.6-6.9,0.6-10.2C257.1,18.6,256.3,17.8,255.3,17.1z M296.1,55.5
		c-11,6.4-18.9,17.6-21.6,30c10.1,1.2,19.9-4.2,26.3-11.7c4.2-5.2,7.6-12.7,4.1-19.3C302,54.3,298.8,53.7,296.1,55.5z M217,128.4
		c-3.4,17.6-7.9,35.4-6.4,53.5c2.4-0.1,5.6,0.9,7-1.9c4.4-7.2,7-15.5,8-23.8c1.2-9.1,1.5-19.4-5-26.9
		C219.4,128.9,218.2,128.6,217,128.4z M293.8,157.6c0.5,0.7,1.5,2.4,2,3.1c4.7,0.5,8.1-2.9,10.5-6.5c4-6.9,6.2-14.8,6.5-22.8
		C304.6,138.5,294.9,146.1,293.8,157.6z"/>
</g>
<path class="st0" d="M343.8,8.5c2.9-3.1,7.2-2.9,11.1-2.6c6,7.1-1.5,18.9-10.3,18.4C337.9,21.8,339.4,12.3,343.8,8.5z"/>
<path class="st0" d="M123.4,43.5c2.5-5.2,9-4.2,13.7-3.6c-0.2,2.2-0.4,4.7-1.2,6.9c-4.2,10.8-9.6,21.3-15.1,31.7
	c-7.7,14.2-17.9,27.2-31,36.6c3,3.4,7.2,5.5,9.1,9.7c5.6,13.7,4.6,30,14.2,42c4,5.1,11,4.4,16.7,4.7c0.1,4.2-1.1,8.7-4.9,11
	c-8.8,4-20.8,0.7-25.3-8.2c-6-9.7-6.6-21.2-9.7-31.9c-1.5-6.4-3.6-14-10.2-16.8c-3-0.5-7.7-1.2-9,2.4c-1.9,4.1-2.1,8.8-3.4,13.2
	c-3.2,12-7.4,23.9-13.8,34.7c-6.9,11.5-19.9,18.4-33.2,18.8c-3.9,0.1-7.9-1.2-10.6-4.1c-5-5.9-6.4-14.5-3.7-21.7
	c2.1-6.2,5.2-12.6,10.7-16.6c2.2-1.6,5,0,7.2,0.5c-0.9,7.2-6.4,13.3-5.2,20.8c-0.1,4.5,3.4,8.5,7.7,9.1c5.9-0.2,11.6-3.1,14.7-8.2
	c7.1-9.8,9.1-22.2,12.5-33.5c2.7-11.2,5.9-22.4,9-33.5c2.4-8.5,3.9-17.1,6.7-25.4c1-2.7,1.4-5.6,1.4-8.6c-6.5,7-12.6,14.6-20.4,20.1
	c-6,4.5-12,8.8-17.4,14c-4.4,4.4-6.1,10.6-6,16.6c2.4,3,5.7,4.5,9.3,5.2c0,1.7,0,3.5,0,5.2c-3.9,4.5-10.1,4.2-15.5,3.2
	c-5.7-2-9.3-8.1-9-14.1c-0.4-9.5,6-17.6,13-23.1c14-10.6,29-19.7,41.6-31.8c4.6-4.5,7-11,12.2-15c3.1-2.4,7.1-2.2,10.8-2.2
	c1.4,6.6-2.1,12.7-3.9,18.8c-2.7,10.1-5.6,20.2-8,30.4c-1.1,3.9-2.1,7.7-2.1,11.7c15.1-8.7,25.6-23.3,34-38.1
	C115.4,64.7,118.8,53.7,123.4,43.5z"/>
<path class="st0" d="M362.6,134.6c8.2-10.5,24.6-13.1,35.8-6.1c8.2,5.4,9.8,17.9,4.2,25.7c-5.2,6.7-13,11-19.7,16
	c7.9,0.4,15.7,0.2,23.4,0.2c0.1,4.2,0.1,8.6,0.1,12.8c-8.2-0.2-16.3,0.4-24.6,0c-6.9,0.5-14-0.6-20.7,0.9c-0.6-4.2-0.7-8.6-0.6-12.8
	c6.7-4.5,12.8-9.8,19.4-14.6c3.7-3,8.2-5.6,9.7-10.5c1-2.6-1-4.9-2-7c-2.9,0-5.9-0.6-8.6,0.4c-2.7,1.6-4.9,4.1-7.2,6.2
	c-3-2.4-6.2-4.4-8.8-7.2C361.7,137.6,362.1,135.9,362.6,134.6z"/>
<g>
	<path class="st0" d="M416.8,128.9c10.7-7.2,28-6,35.3,5.6c5,6.9,4.7,15.7,4.4,23.7c-0.9,10.5-6.9,21.6-17.3,24.9
		c-10,2.7-21.3,1.4-29.5-5.4c2.4-3.6,4.6-7.2,7.2-10.6c5.4,2.6,11.8,6.2,17.7,2.9c4-1.6,5.1-6.2,5.6-10.1
		c-7.9,5.6-19.9,5.4-26.8-1.6C405.8,150,407.6,135.2,416.8,128.9z M425.4,139.6c-0.5,1.9-1.1,3.6-1.7,5.5c1.2,2.4,2,5.6,4.7,6.7
		c3,0.6,6.1,0,9.2-0.1c1.1-2,2.4-3.9,3.6-5.7c-0.9-3.1-1.5-7-5-8.2C432.6,135.6,428.6,137.5,425.4,139.6z"/>
</g>
</svg>
